<?xml version="1.0" encoding="UTF-8" standalone="no"?>
<!-- Created with Inkscape (http://www.inkscape.org/) -->

<svg
   xmlns:dc="http://purl.org/dc/elements/1.1/"
   xmlns:cc="http://creativecommons.org/ns#"
   xmlns:rdf="http://www.w3.org/1999/02/22-rdf-syntax-ns#"
   xmlns:svg="http://www.w3.org/2000/svg"
   xmlns="http://www.w3.org/2000/svg"
   xmlns:sodipodi="http://sodipodi.sourceforge.net/DTD/sodipodi-0.dtd"
   xmlns:inkscape="http://www.inkscape.org/namespaces/inkscape"
   width="210mm"
   height="297mm"
   viewBox="0 0 744.09448819 1052.3622047"
   id="svg2"
   version="1.1"
   inkscape:version="0.91 r13725"
   sodipodi:docname="Aquila logo.svg">
  <defs
     id="defs4" />
  <sodipodi:namedview
     id="base"
     pagecolor="#ffffff"
     bordercolor="#666666"
     borderopacity="1.0"
     inkscape:pageopacity="0.0"
     inkscape:pageshadow="2"
     inkscape:zoom="0.35"
     inkscape:cx="-417.50376"
     inkscape:cy="1136.1407"
     inkscape:document-units="px"
     inkscape:current-layer="layer1"
     showgrid="false"
     inkscape:window-width="1920"
     inkscape:window-height="1017"
     inkscape:window-x="1358"
     inkscape:window-y="-8"
     inkscape:window-maximized="1" />
  <metadata
     id="metadata7">
    <rdf:RDF>
      <cc:Work
         rdf:about="">
        <dc:format>image/svg+xml</dc:format>
        <dc:type
           rdf:resource="http://purl.org/dc/dcmitype/StillImage" />
        <dc:title></dc:title>
      </cc:Work>
    </rdf:RDF>
  </metadata>
  <g
     inkscape:label="Layer 1"
     inkscape:groupmode="layer"
     id="layer1">
    <path
       style="fill:#000000"
       d="m 293.77845,394.19131 c -4.17643,-2.62284 -6.65081,-6.15251 -8.30712,-11.85004 -1.84098,-6.33274 -1.82196,-7.32988 0.18715,-9.80985 3.43458,-4.23952 11.71577,-4.00116 21.59602,0.62161 1.69422,0.79269 3.33039,1.19126 3.63593,0.88572 0.30555,-0.30554 0.90978,-8.27092 1.34273,-17.70085 0.72588,-15.80978 1.80568,-27.31913 3.60148,-38.3877 l 0.70858,-4.36737 -5.02129,3.33394 c -6.55495,4.35224 -12.50438,5.06935 -18.39589,2.21731 -10.61798,-5.14007 -12.17764,-20.67162 -3.72844,-37.129 6.24555,-12.16509 13.28783,-18.57395 22.22519,-20.22611 6.46514,-1.19515 11.0862,-0.0227 15.37901,3.90186 l 3.14019,2.87083 -0.45113,7.66421 c -0.24813,4.21532 -1.80076,14.62515 -3.4503,23.13296 -4.66994,24.08607 -5.60611,31.76376 -6.573,53.90625 -0.49536,11.34375 -1.16303,21.52984 -1.48373,22.63576 -0.50979,1.75803 0.10496,2.27063 4.8911,4.07843 13.1745,4.97621 26.34579,6.34326 32.33398,3.35596 4.84882,-2.41891 6.59087,-1.99364 6.24647,1.52488 -0.4968,5.07544 -4.602,6.71407 -16.59619,6.62451 -8.71464,-0.0651 -11.12241,-0.46943 -19.42631,-3.26246 l -9.47873,-3.18818 -2.88207,3.43287 c -5.32082,6.33769 -14.31844,8.98454 -19.49363,5.73446 z m 11.72997,-7.26956 c 1.58644,-1.33491 2.88443,-3.15571 2.88443,-4.04625 0,-1.55171 -4.42053,-3.77806 -13.00925,-6.55198 l -3.16552,-1.02237 0.63092,3.94555 c 0.80831,5.05487 4.58091,10.10213 7.55089,10.10213 1.22326,0 3.5221,-1.09219 5.10853,-2.42708 z m 0.82162,-74.8276 c 1.39236,-0.72444 3.4355,-2.30647 4.54033,-3.51562 2.83723,-3.10516 8.21927,-14.45323 9.49055,-20.01095 1.67004,-7.3009 3.12364,-18.31191 2.54172,-19.25348 -0.2893,-0.4681 -2.1819,-1.34721 -4.20579,-1.95358 -7.38071,-2.21132 -16.30211,3.96064 -22.52348,15.58206 -6.803,12.70791 -7.3217,22.14041 -1.61105,29.29687 1.2598,1.57877 8.62898,1.48779 11.76772,-0.1453 z m 168.96203,17.48905 c -5.95563,-10.96051 -11.77298,-31.95282 -15.59802,-56.28651 -2.15912,-13.73558 -2.3944,-17.39993 -1.90886,-29.72911 0.56757,-14.41206 3.29141,-37.79149 5.57042,-47.8125 1.0186,-4.47884 1.64621,-5.625 3.08013,-5.625 1.56978,0 1.78825,0.66164 1.70258,5.15625 -0.0541,2.83594 -0.82605,11.0625 -1.71553,18.28125 -4.45903,36.18843 -3.84919,46.89419 5.00283,87.82667 1.39065,6.43044 6.25242,20.43704 8.97603,25.85963 3.00931,5.99141 3.0301,7.71995 0.0929,7.71995 -1.80294,0 -2.87944,-1.11544 -5.20245,-5.39063 z m 66.84624,2.07056 c -7.57209,-3.89734 -11.18591,-8.57175 -14.02832,-18.14541 -0.21378,-0.72007 -1.47098,0.86262 -2.79376,3.51711 -1.32278,2.65447 -3.86729,6.03161 -5.65447,7.50475 -5.56335,4.58579 -13.87033,6.10712 -18.96404,3.47306 -3.5286,-1.82471 -9.30408,-8.35907 -10.06385,-11.38622 -1.19143,-4.74704 0.53868,-17.07917 3.57556,-25.48645 2.48457,-6.87829 3.79768,-9.02946 8.20913,-13.44847 6.43144,-6.44248 10.45159,-8.62969 16.04086,-8.72726 5.49307,-0.0959 10.97458,3.38376 14.16402,8.99127 2.1981,3.86459 2.27628,4.53029 1.63257,13.90269 -0.8112,11.81133 0.27291,22.06376 2.87172,27.15786 2.58178,5.0607 6.37164,6.90021 13.19878,6.40638 7.58052,-0.54832 11.43515,-3.68296 15.50151,-12.60598 4.09001,-8.97496 6.97126,-9.1794 6.91925,-0.49096 -0.0389,6.49241 -4.64478,13.61097 -11.57994,17.89713 -4.52743,2.79811 -14.87015,3.58105 -19.02902,1.4405 z m -29.26229,-11.26712 c 4.5488,-2.35227 9.05118,-10.32833 12.18908,-21.59317 1.56487,-5.6178 3.07455,-12.15042 3.35482,-14.51695 0.46002,-3.88406 0.2558,-4.50241 -2.09855,-6.35435 -5.80181,-4.5637 -9.92191,-3.55318 -18.22558,4.47011 -6.87532,6.64316 -9.26523,12.67649 -10.03656,25.33726 -0.53833,8.83628 -0.50408,9.03514 2.08672,12.11414 2.39775,2.84957 2.9647,3.0775 6.32013,2.54095 2.02736,-0.32419 4.91183,-1.22328 6.40994,-1.99799 z m -91.51442,2.20635 c -11.37326,-3.97433 -16.26649,-22.04906 -12.7012,-46.91604 0.99071,-6.90995 1.44772,-8.20312 2.89896,-8.20312 0.94756,0 2.0568,0.52734 2.46497,1.17187 0.40816,0.64454 0.74947,7.92188 0.75844,16.17188 0.0129,11.83958 0.38027,16.20688 1.74366,20.72808 3.87886,12.86292 9.19465,13.72941 22.7068,3.70129 1.6508,-1.22516 4.15962,1.02554 4.15962,3.73165 0,3.91262 -11.26836,10.89267 -17.22724,10.67121 -1.09533,-0.0407 -3.25713,-0.51627 -4.80401,-1.05682 z m -68.97991,-2.02584 c -1.84522,-0.65966 -4.3569,-1.90119 -5.58153,-2.75895 -2.6951,-1.88773 -7.45797,-8.78776 -7.50048,-10.86607 -0.0169,-0.82476 -0.38973,-4.28176 -0.82858,-7.68224 -0.80282,-6.22079 0.76252,-28.41669 2.16398,-30.68429 1.01342,-1.63975 4.03136,-1.33192 4.7275,0.4822 0.3343,0.87118 0.32033,7.75786 -0.031,15.30373 -0.58574,12.57878 -0.46935,14.22918 1.39956,19.84526 1.12114,3.36902 3.0438,7.06997 4.27258,8.22436 2.84226,2.67016 7.78196,2.87467 11.05547,0.45771 5.23599,-3.86592 10.18413,-18.42603 11.90076,-35.01841 0.48454,-4.6835 1.14258,-8.93872 1.46231,-9.45604 0.81532,-1.31922 3.96611,-1.17338 4.82946,0.22353 0.39571,0.64027 0.83223,7.18277 0.97006,14.53891 0.20832,11.11809 0.58132,14.14357 2.21068,17.93112 3.36954,7.83271 11.30191,14.0133 15.51905,12.09184 1.63579,-0.74531 2.56536,-0.69708 3.63239,0.18848 2.12034,1.75972 1.76347,3.17686 -1.38648,5.50572 -2.47728,1.83153 -3.26589,1.96535 -6.48056,1.09973 -5.4312,-1.46247 -12.35688,-6.59218 -15.5427,-11.51216 -1.54687,-2.38889 -3.02343,-4.34457 -3.28125,-4.34595 -0.25781,-9.4e-4 -1.73437,2.61244 -3.28125,5.80847 -4.87146,10.06505 -11.72454,13.66371 -20.22992,10.62305 z m -90.44884,-1.80159 c -0.7795,-2.03133 0.005,-4.54594 4.10699,-13.17097 7.91547,-16.64189 18.0758,-55.34928 21.09995,-80.38361 2.42313,-20.05916 -0.15387,-34.32121 -7.989,-44.21388 -4.04271,-5.10433 -12.98495,-10.77372 -18.23501,-11.56102 -13.03954,-1.9554 -29.44112,7.86816 -38.17443,22.86417 -8.30397,14.25879 -11.11934,27.64889 -11.27215,53.61108 -0.13336,22.65929 1.34304,36.13056 5.54416,50.58695 3.67443,12.64404 3.8587,14.30702 1.77679,16.03485 -1.97618,1.64009 -2.49334,0.7389 -5.95195,-10.3718 -4.6518,-14.94376 -6.28351,-25.06552 -8.08562,-50.15625 -0.91123,-12.68698 2.55747,-39.71431 6.53343,-50.90699 1.73868,-4.89456 7.41527,-15.45901 10.57026,-19.67183 2.93885,-3.92421 14.56687,-12.70087 20.0123,-15.105 7.29376,-3.22016 15.96823,-4.35526 22.07941,-2.88921 10.31414,2.47433 19.06558,9.33526 25.54554,20.02714 6.15086,10.14888 7.28522,30.48112 2.98737,53.54589 -1.90293,10.21222 -8.30566,37.33392 -10.734,45.46875 -0.69263,2.32031 -1.80692,6.11719 -2.47619,8.4375 -1.61512,5.59958 -11.86858,27.37999 -13.3252,28.30544 -1.73069,1.09958 -3.49362,0.90134 -4.01265,-0.45121 z m 199.2725,-1.92869 c -9.55681,-7.06226 -23.90086,-25.43516 -23.28023,-29.81903 0.2015,-1.42336 1.0352,-2.30327 2.3611,-2.49201 1.99995,-0.28468 1.97725,-0.39432 -0.9375,-4.52556 -2.90493,-4.11734 -2.99549,-4.54777 -3.29148,-15.64576 -0.26074,-9.77638 0.0415,-12.80916 2.10938,-21.16096 1.32756,-5.36197 2.42312,-10.42447 2.43458,-11.25 0.0114,-0.82554 0.81504,-2.53434 1.78572,-3.79735 1.20988,-1.57425 1.61444,-3.22332 1.28651,-5.24408 -0.57829,-3.56361 1.90676,-16.15321 4.01902,-20.36092 2.90269,-5.78226 10.00645,-15.71197 13.32473,-18.62546 8.96054,-7.86746 17.59738,-7.09949 21.84769,1.94266 2.28663,4.86461 2.07257,11.82594 -0.51768,16.83494 -1.37679,2.66242 -1.38871,3.85125 -0.1304,12.99611 2.29544,16.68219 2.38578,19.94966 0.60087,21.73457 -1.29359,1.29359 -1.35474,1.77899 -0.3432,2.72392 0.79224,0.74005 1.23741,3.55885 1.24918,7.90973 0.01,3.71795 0.62955,12.20064 1.37666,18.85043 0.7471,6.6498 1.07524,12.54867 0.72918,13.1086 -0.34606,0.55993 -0.52703,5.45513 -0.40216,10.87822 0.28133,12.21818 -1.77125,24.85736 -4.47605,27.56216 -3.01947,3.01948 -4.34909,0.90498 -2.94279,-4.67995 0.61538,-2.44389 1.35613,-8.94476 1.64611,-14.44637 l 0.52725,-10.00293 -2.92575,0.4294 c -2.68611,0.39424 -2.92574,0.21278 -2.92574,-2.21559 0,-1.75496 1.09795,-3.7694 3.26283,-5.98645 l 3.26283,-3.34143 -1.36953,-10.29184 c -0.75323,-5.66051 -1.37776,-12.48178 -1.38783,-15.15838 -0.01,-2.6766 -0.42778,-5.11963 -0.92826,-5.42894 -0.50049,-0.30932 -2.22607,0.11819 -3.83462,0.95 -1.60855,0.83182 -3.51938,1.28417 -4.24628,1.00524 -2.56027,-0.98248 -1.26671,-3.96502 3.9188,-9.03553 l 5.24043,-5.12423 -0.60029,-7.96875 c -0.33016,-4.38281 -0.84012,-9.52761 -1.13327,-11.43287 -0.52358,-3.40309 -0.57217,-3.43844 -2.7579,-2.0063 -2.46129,1.6127 -5.05191,1.11325 -5.05191,-0.97396 0,-0.74083 1.53774,-3.17985 3.41718,-5.42004 6.21837,-7.41194 7.52019,-13.68639 4.02806,-19.41439 -1.66011,-2.72303 -2.29546,-3.07927 -4.65146,-2.60807 -1.50079,0.30016 -4.11994,1.45771 -5.82033,2.57234 -2.94094,1.92784 -9.41806,9.95943 -11.96394,14.83522 -1.20122,2.30053 -4.6656,15.41968 -4.68593,17.745 -0.007,0.69613 1.69859,4.86422 3.78817,9.26243 4.08788,8.60425 4.4191,11.80232 1.269,12.25229 -1.33885,0.19124 -2.76992,-0.77753 -4.50083,-3.04688 -1.39581,-1.83 -2.88026,-3.32727 -3.29877,-3.32727 -0.41851,0 -1.66267,4.23481 -2.76479,9.41068 -2.2202,10.42673 -2.58448,23.88363 -0.77907,28.78066 1.3847,3.75587 10.68558,15.03185 13.00647,15.76847 0.93844,0.29785 1.70624,1.34883 1.70624,2.33551 0,2.27211 -3.41566,3.20433 -6.89449,1.88167 -1.43142,-0.54421 -2.81477,-0.98949 -3.07412,-0.98949 -1.25388,0 4.6916,6.96177 12.58818,14.73996 5.75044,5.66423 8.66784,9.21718 8.45897,10.30173 -0.51195,2.65839 -2.8106,2.3475 -7.32854,-0.99115 z m -48.40823,-53.27183 c -1.10109,-0.53317 -2.518,-1.9336 -3.14871,-3.11207 -1.45838,-2.72501 0.38686,-6.95571 3.53212,-8.09827 4.72079,-1.71489 8.11582,7.14151 4.12288,10.75508 -1.95062,1.76528 -1.82669,1.75277 -4.50629,0.45526 z M 262.45535,248.09442 c -2.32031,-0.166 -8.85937,-0.91217 -14.53125,-1.65815 -5.67187,-0.74597 -13.47656,-1.61325 -17.34375,-1.92728 -10.62341,-0.86266 -12.1875,-1.2968 -12.1875,-3.38286 0,-3.15375 3.85976,-3.79524 16.35902,-2.71887 6.28009,0.54081 13.92235,1.39333 16.98279,1.8945 3.06045,0.50116 7.71633,0.91365 10.34643,0.91664 6.81328,0.007 10.68676,1.5357 10.68676,4.21559 0,2.20485 -1.75582,3.41656 -4.5298,3.12605 -0.86016,-0.0901 -3.46238,-0.29961 -5.7827,-0.46562 z"
       id="path4147"
       inkscape:connector-curvature="0" />
    <path
       style="fill:#000000"
       d="m 395.98061,824.9759 c -13.7585,-25.32061 -27.19755,-73.81635 -36.03403,-130.03125 -4.98793,-31.73148 -5.53147,-40.19674 -4.40979,-68.67921 1.31118,-33.29427 7.60371,-87.30466 12.8686,-110.45487 2.35314,-10.34687 3.80302,-12.99469 7.11562,-12.99469 3.62645,0 4.13116,1.5285 3.93324,11.9118 -0.12498,6.55149 -1.90831,25.55622 -3.96316,42.23274 -10.3011,83.60133 -8.89227,108.33342 11.55738,202.8943 3.21263,14.85539 14.44413,47.21298 20.73613,59.74006 6.95201,13.84116 7.00003,17.83438 0.21461,17.83438 -4.16509,0 -6.65199,-2.57685 -12.01853,-12.45326 z m -32.54268,-29.44615 c -22.07783,-16.315 -55.21498,-58.75947 -53.78122,-68.88695 0.4655,-3.2882 2.39148,-5.32093 5.45454,-5.75696 4.62021,-0.65765 4.56777,-0.91094 -2.16579,-10.4548 -6.71087,-9.51174 -6.92008,-10.50611 -7.60387,-36.14432 -0.60235,-22.58507 0.0959,-29.5913 4.87302,-48.88535 3.06689,-12.38705 5.59782,-24.08227 5.62429,-25.98939 0.0263,-1.90713 1.88288,-5.85474 4.12531,-8.77251 2.79503,-3.63678 3.72963,-7.44641 2.97206,-12.1147 -1.33595,-8.23254 4.40493,-37.31662 9.2846,-47.03713 6.7057,-13.35799 23.11658,-36.29728 30.78236,-43.02793 20.70035,-18.17515 40.65289,-16.40101 50.47182,4.48787 5.28249,11.23806 4.78798,27.3199 -1.19593,38.89153 -3.18062,6.15063 -3.20815,8.89703 -0.30125,30.02319 5.30285,38.53864 5.51155,46.08705 1.38811,50.21049 -2.98841,2.98841 -3.12967,4.10976 -0.79285,6.29271 1.83021,1.70964 2.85863,8.22154 2.88582,18.2728 0.0231,8.58908 1.45436,28.18551 3.18031,43.54764 1.72593,15.36215 2.48399,28.98953 1.68453,30.28306 -0.79945,1.29353 -1.21753,12.60226 -0.92906,25.13051 0.64992,28.22604 -4.09188,57.42466 -10.34042,63.6732 -6.97548,6.9755 -10.04712,2.09065 -6.79834,-10.81147 1.42163,-5.6458 3.13289,-20.66389 3.80279,-33.37353 l 1.21804,-23.10844 -6.75897,0.99198 c -6.20537,0.91076 -6.75895,0.49156 -6.75895,-5.11838 0,-4.05425 2.53645,-8.70794 7.53768,-13.8297 l 7.53768,-7.71926 -3.16384,-23.77587 c -1.74009,-13.07673 -3.18286,-28.835 -3.20612,-35.0184 -0.0231,-6.18339 -0.98824,-11.8272 -2.14443,-12.54176 -1.15622,-0.71458 -5.1426,0.27304 -8.85862,2.19466 -3.71602,1.92165 -8.13035,2.96665 -9.80961,2.32228 -5.91466,-2.2697 -2.92632,-9.15986 9.05308,-20.87359 l 12.10627,-11.83783 -1.38677,-18.40914 c -0.76273,-10.12503 -1.94082,-22.01038 -2.61805,-26.41184 -1.20955,-7.86171 -1.3218,-7.94338 -6.37121,-4.63489 -5.68599,3.7256 -11.67075,2.57179 -11.67075,-2.25001 0,-1.71145 3.55243,-7.34599 7.89426,-12.5212 14.36547,-17.12282 17.37289,-31.61785 9.30549,-44.85049 -3.83513,-6.29065 -5.3029,-7.11363 -10.74565,-6.02508 -3.46708,0.69342 -9.51775,3.36756 -13.44594,5.94254 -6.79406,4.45363 -21.75729,23.00795 -27.6387,34.27184 -2.77502,5.31461 -10.77832,35.62204 -10.82528,40.99391 -0.0162,1.60818 3.92402,11.23717 8.7513,21.39777 9.44369,19.87725 10.20886,27.26533 2.93161,28.30483 -3.09297,0.4418 -6.39898,-1.79622 -10.39767,-7.0388 -3.22456,-4.2276 -6.65389,-7.68655 -7.62071,-7.68655 -0.96683,0 -3.84105,9.78312 -6.38713,21.74025 -5.12904,24.08749 -5.97058,55.17518 -1.79978,66.48813 3.19888,8.67669 24.68547,34.72609 30.04712,36.42781 2.16795,0.68808 3.9417,3.11602 3.9417,5.39542 0,5.24895 -7.89075,7.40253 -15.92743,4.34697 -3.30682,-1.25722 -6.50259,-2.28589 -7.10173,-2.28589 -2.89667,0 10.83838,16.08285 29.0808,34.05177 13.28448,13.08532 20.02416,21.29323 19.54164,23.79872 -1.18269,6.14133 -6.49296,5.42312 -16.93016,-2.28972 z"
       id="path4147-3"
       inkscape:connector-curvature="0"
       sodipodi:nodetypes="csssscssssccsssssscssssssssccsssssscssscscsscscssssssssscsssssssscssss" />
  </g>
</svg>
